<?xml version="1.0" encoding="UTF-8"?>
<!DOCTYPE svg PUBLIC "-//W3C//DTD SVG 1.1//EN" "http://www.w3.org/Graphics/SVG/1.1/DTD/svg11.dtd">
<!-- Creator: CorelDRAW X8 -->
<svg xmlns="http://www.w3.org/2000/svg" xml:space="preserve" width="5.62095in" height="5.03022in" version="1.1" style="shape-rendering:geometricPrecision; text-rendering:geometricPrecision; image-rendering:optimizeQuality; fill-rule:evenodd; clip-rule:evenodd"
viewBox="0 0 5948 5323"
 xmlns:xlink="http://www.w3.org/1999/xlink">
 <defs>
  <style type="text/css">
   <![CDATA[
    .str0 {stroke:#674187;stroke-width:7.34876}
    .fil4 {fill:none}
    .fil1 {fill:#010000}
    .fil2 {fill:#CC3232}
    .fil3 {fill:#FEFCFC}
    .fil0 {fill:#674187}
   ]]>
  </style>
 </defs>
 <g id="Layer_x0020_1">
  <metadata id="CorelCorpID_0Corel-Layer"/>
  <g id="_2684632803792">
   <path class="fil0" d="M5795 4364c-8,-9 -20,-14 -32,-14 -13,0 -24,5 -33,14l-14 14 -906 -907 59 -60c9,-9 14,-21 14,-33 0,-12 -5,-24 -14,-33l-139 -138 -277 -278c-9,-9 -21,-14 -33,-14l-509 0c-282,0 -509,228 -510,509l0 319 -230 1014c-1,3 -1,7 -1,10 0,16 8,31 22,40l209 125 0 67c0,14 7,28 19,37l167 125 0 115c0,26 20,47 46,47l231 0c26,0 47,-21 47,-47l0 -115 166 -125c12,-9 19,-23 19,-37l0 -67 209 -125c14,-9 22,-24 22,-40 0,-3 0,-7 -1,-10l-230 -1014 0 -144 156 94 135 135c9,8 21,13 33,13 12,0 24,-5 33,-13l60 -60 906 907 -13 13c-9,9 -14,21 -14,33 0,12 5,24 14,33l139 138c8,9 20,14 32,14 13,0 25,-5 33,-14l324 -324c9,-8 14,-20 14,-32 0,-13 -5,-24 -14,-33l-139 -139zm-2394 460l-132 -79 132 -584 0 663zm186 -1400l0 1621 -93 -69 0 -1552c0,-230 187,-416 417,-416l490 0 231 231 -73 74 -199 -199c-9,-9 -20,-14 -33,-14l-416 0c-179,1 -324,146 -324,324l0 0zm555 -324l0 2130 -463 0 0 -1806c0,-127 104,-231 232,-231l397 0 185 185 -73 74 -153 -153c-8,-9 -20,-13 -32,-13l-278 0c-77,0 -139,62 -139,138l324 -324zm225 1506l-271 218 0 -663 271 445zm-294 -1129c-7,-4 -15,-6 -23,-6 -26,0 -47,20 -47,46l0 1459 -92 69 0 -1621c0,-25 20,-46 46,-46l259 0 138 139 -80 81 -201 -121zm347 252l-73 -73 351 -351 73 73 -351 351zm158 -27l166 -166 907 907 -166 166 -907 -907zm999 1092l-73 -73 259 -259 73 74 -259 258z"/>
   <rect class="fil0" transform="matrix(0.232961 -0.232958 0.232961 0.232958 4665.02 3688.69)" width="281" height="397"/>
   <rect class="fil0" transform="matrix(0.232961 -0.232958 0.232961 0.232958 4803.91 3827.59)" width="281" height="397"/>
   <rect class="fil0" transform="matrix(0.232961 -0.232958 0.232961 0.232958 5405.8 4429.49)" width="281" height="397"/>
  </g>
  <g id="_2684632788272">
   <path class="fil1" d="M1191 1649c52,-56 217,-200 280,-237 -43,78 -72,82 -84,198l-196 39zm424 239c116,-160 284,-203 546,-153 141,27 164,52 249,118 66,51 150,111 199,168 127,-70 218,-156 253,-300l-447 -3c137,-157 378,-91 434,-405l-651 -1c11,-14 8,-13 25,-25 11,-8 15,-10 28,-18 19,-11 37,-18 57,-30 230,-126 241,-90 288,-270l-860 1c-117,2 -100,6 -169,-75l-24 -28c-23,36 -102,100 -143,133 -109,88 -58,46 -78,197 -26,-20 -7,0 -29,-26l-41 -57c-26,46 -135,122 -176,157 -182,158 -247,400 -480,566 -68,48 -132,92 -205,143 -118,83 -106,43 -150,199 -17,58 -74,225 -69,272 4,33 77,218 97,245 151,-116 45,-80 319,-170 155,-52 28,-55 128,-119l684 -318c103,-48 79,-32 134,-128 -17,-38 15,3 -18,-25 -2,-1 -7,-5 -9,-6l108 -42z"/>
   <path class="fil2" d="M1657 2202c45,-20 78,-51 119,-85 47,-38 63,-70 138,-68 34,44 87,82 71,160 68,-1 64,9 95,47 60,74 103,111 -169,277 -44,-37 -235,-270 -254,-331zm274 -198c8,-10 197,-228 275,-151 31,31 199,244 197,267 -29,60 -161,159 -216,193 -20,-13 -7,-4 -25,-22l-231 -287zm-316 -116c-108,204 -12,165 -251,266l-552 247c-158,63 -20,91 -135,141 -143,62 -289,65 -350,188 41,29 244,87 307,91 55,4 513,-152 605,-181 318,-100 601,25 767,-119 131,-114 537,-417 603,-500 -49,-57 -133,-117 -199,-168 -85,-66 -108,-91 -249,-118 -262,-50 -430,-7 -546,153z"/>
   <path class="fil3" d="M2609 2021c-66,83 -472,386 -603,500 -166,144 -449,19 -767,119 -92,29 -550,185 -605,181 -63,-4 -266,-62 -307,-91 61,-123 207,-126 350,-188 115,-50 -23,-78 135,-141l552 -247c239,-101 143,-62 251,-266l-108 42c2,1 7,5 9,6 33,28 1,-13 18,25 -55,96 -31,80 -134,128l-684 318c-100,64 27,67 -128,119 -274,90 -168,54 -319,170 -20,-27 -93,-212 -97,-245 -5,-47 52,-214 69,-272 44,-156 32,-116 150,-199 73,-51 137,-95 205,-143 233,-166 298,-408 480,-566 41,-35 150,-111 176,-157l41 57c22,26 3,6 29,26 20,-151 -31,-109 78,-197 41,-33 120,-97 143,-133l24 28c69,81 52,77 169,75l860 -1c-47,180 -58,144 -288,270 -20,12 -38,19 -57,30 -13,8 -17,10 -28,18 -17,12 -14,11 -25,25l651 1c-56,314 -297,248 -434,405l447 3c-35,144 -126,230 -253,300zm-377 -1094c-107,0 -522,21 -578,-18 -100,-70 5,-126 62,-174l482 -405c75,-60 253,-229 329,-262l-295 859zm-2108 1498c0,40 82,289 138,327 39,26 347,109 371,109 61,0 405,-113 495,-143 164,-55 184,-76 362,-74l414 -22c82,-15 85,-33 140,-78l598 -492c182,-148 182,-96 254,-284 53,-139 -72,-98 -317,-98 79,-69 173,-91 226,-137 36,-30 37,-69 56,-118 80,-204 44,-152 -500,-152l82 -48c119,-58 136,-63 160,-130 33,-90 34,-67 34,-156l-349 0c2,-60 118,-374 144,-452 25,-74 47,-147 74,-216 208,-521 -107,-145 -433,118l-666 555c-34,29 -48,43 -86,74l-251 214c-76,61 -91,79 -147,158l-189 261c-90,120 -100,121 -247,218 -254,169 -241,141 -292,318 -8,29 -71,234 -71,248z"/>
   <path class="fil1" d="M2232 927l295 -859c-76,33 -254,202 -329,262l-482 405c-57,48 -162,104 -62,174 56,39 471,18 578,18z"/>
   <path class="fil3" d="M1657 2202c19,61 210,294 254,331 272,-166 229,-203 169,-277 -31,-38 -27,-48 -95,-47 16,-78 -37,-116 -71,-160 -75,-2 -91,30 -138,68 -41,34 -74,65 -119,85z"/>
   <path class="fil3" d="M2106 1993c0,-5 2,-7 3,-10 57,-13 11,-18 49,20 33,32 79,82 85,117 1,3 -2,13 -2,11 0,-2 -3,8 -5,12 -51,4 -129,-122 -132,-140 0,-2 2,-5 2,-10zm-175 11l231 287c18,18 5,9 25,22 55,-34 187,-133 216,-193 2,-23 -166,-236 -197,-267 -78,-77 -267,141 -275,151z"/>
   <path class="fil3" d="M1191 1649l196 -39c12,-116 41,-120 84,-198 -63,37 -228,181 -280,237z"/>
   <path class="fil2" d="M2109 1983c-1,3 -3,5 -3,10 0,5 -2,8 -2,10 3,18 81,144 132,140 2,-4 5,-14 5,-12 0,2 3,-8 2,-11 -6,-35 -52,-85 -85,-117 -38,-38 8,-33 -49,-20z"/>
  </g>
  <line class="fil4 str0" x1="2" y1="5295" x2="5740" y2= "575" />
 </g>
</svg>
