<?xml version="1.0" encoding="UTF-8"?>
<!DOCTYPE svg PUBLIC "-//W3C//DTD SVG 1.1//EN" "http://www.w3.org/Graphics/SVG/1.1/DTD/svg11.dtd">
<!-- Creator: CorelDRAW X8 -->
<svg xmlns="http://www.w3.org/2000/svg" xml:space="preserve" width="4.81848in" height="4.00685in" version="1.1" style="shape-rendering:geometricPrecision; text-rendering:geometricPrecision; image-rendering:optimizeQuality; fill-rule:evenodd; clip-rule:evenodd"
viewBox="0 0 6060 5039"
 xmlns:xlink="http://www.w3.org/1999/xlink">
 <defs>
  <style type="text/css">
   <![CDATA[
    .fil0 {fill:#3D43AA}
   ]]>
  </style>
 </defs>
 <g id="Layer_x0020_1">
  <metadata id="CorelCorpID_0Corel-Layer"/>
  <g id="_2684625798304">
   <g>
    <path class="fil0" d="M6029 1960c-40,-95 -115,-168 -210,-207l-107 -43 0 -563c0,-212 -172,-385 -385,-385l-1955 0 -1121 -454c-45,-18 -97,4 -116,49 -18,46 4,97 49,116l715 289 -1860 0 185 -455c43,-106 164,-157 270,-114l361 146c45,19 97,-3 115,-49 19,-45 -3,-97 -49,-116l-361 -146c-196,-80 -422,16 -501,213l-212 521 -115 0c-212,0 -385,173 -385,385l0 850 -319 787c-38,95 -37,200 3,295 40,95 114,168 210,207l106 43 0 563c0,212 173,385 386,385l379 0c49,0 89,-40 89,-89 0,-49 -40,-89 -89,-89l-379 0c-115,0 -208,-93 -208,-207l0 -1590 1169 0c-205,162 -479,443 -595,847 -13,45 13,93 56,109 48,16 101,-12 115,-60 120,-420 444,-697 627,-824l0 1725 -429 0c-49,0 -89,40 -89,89 0,49 40,89 89,89l1219 0 884 358c11,4 22,6 33,6 36,0 69,-21 83,-55 18,-46 -4,-98 -49,-116l-477 -193 1859 0 -184 455c-43,106 -164,157 -270,114l-598 -242c-45,-19 -97,3 -115,49 -19,45 3,97 49,116l597 242c48,19 96,28 144,28 153,0 297,-91 358,-241l211 -521 115 0c213,0 385,-173 385,-385l0 -850 319 -787c39,-95 38,-200 -2,-295l0 0zm-5721 1161c-52,-21 -92,-61 -114,-112 -21,-51 -22,-107 -1,-158l154 -380 0 666 -39 -16zm798 -1327c-15,-36 -26,-94 54,-177 37,-38 84,-63 138,-55 108,17 250,141 400,350 52,73 98,145 133,205 -341,-34 -660,-170 -725,-323zm791 92c-141,-212 -353,-466 -572,-499 -108,-17 -210,20 -293,107 -64,66 -161,202 -90,369 44,104 144,192 274,261l-691 0 0 -977c0,-114 93,-207 208,-207l1164 0 0 946 0 0zm3637 2006c0,114 -93,207 -207,207l-3252 0 0 -1725c183,127 507,404 627,824 14,49 67,76 115,60 44,-16 69,-64 56,-109 -115,-404 -389,-685 -595,-847l3256 0 0 1590zm-3392 -1775c34,-59 79,-131 131,-203 151,-210 293,-335 401,-352 54,-8 101,17 138,55 81,83 70,141 54,177 -65,153 -383,289 -724,323zm3392 7l-2777 0c129,-69 229,-157 273,-261 71,-167 -26,-303 -90,-369 -83,-87 -184,-124 -292,-107 -220,33 -432,287 -573,499l0 -946 3252 0c114,0 207,93 207,207l0 977 0 0zm332 64l-154 380 0 -666 40 16c51,21 92,60 113,111 22,51 22,108 1,159l0 0z"/>
    <path class="fil0" d="M4547 3655l0 85c0,49 39,89 89,89 49,0 89,-40 89,-89l0 -83c67,-14 113,-44 142,-72 58,-55 93,-137 93,-221 0,-68 -22,-130 -62,-179 -54,-65 -139,-104 -252,-117 -106,-12 -121,-66 -121,-97 0,-19 5,-111 111,-111 68,0 97,40 104,52 14,33 45,56 83,56 67,0 105,-70 80,-129 -21,-46 -80,-117 -178,-145l0 -87c0,-49 -40,-89 -89,-89 -50,0 -89,40 -89,89l0 87c-61,17 -111,53 -147,105 -49,72 -53,150 -53,172 0,112 73,251 279,274 156,17 156,91 156,119 0,28 -10,66 -37,91 -26,25 -66,35 -119,32 -112,-7 -137,-77 -140,-85l0 0c-9,-39 -44,-67 -86,-67 -61,0 -105,63 -84,120 9,28 60,161 231,200l0 0z"/>
   </g>
  </g>
 </g>
</svg>
