<?xml version="1.0" encoding="UTF-8"?>
<!DOCTYPE svg PUBLIC "-//W3C//DTD SVG 1.1//EN" "http://www.w3.org/Graphics/SVG/1.1/DTD/svg11.dtd">
<!-- Creator: CorelDRAW X8 -->
<svg xmlns="http://www.w3.org/2000/svg" xml:space="preserve" width="4.52231in" height="2.91035in" version="1.1" style="shape-rendering:geometricPrecision; text-rendering:geometricPrecision; image-rendering:optimizeQuality; fill-rule:evenodd; clip-rule:evenodd"
viewBox="0 0 6548 4214"
 xmlns:xlink="http://www.w3.org/1999/xlink">
 <defs>
  <style type="text/css">
   <![CDATA[
    .fil0 {fill:#674187}
   ]]>
  </style>
 </defs>
 <g id="Layer_x0020_1">
  <metadata id="CorelCorpID_0Corel-Layer"/>
  <path class="fil0" d="M2702 1967c0,0 -2075,324 -2226,-497 -151,-821 1166,-1470 1166,-1470 -1231,281 -1642,1210 -1642,1578 0,367 109,1901 2831,1858 2722,-44 3068,259 3716,778 87,-3371 -3845,-2247 -3845,-2247zm913 1272l10 -41 351 -303 -351 -237 351 -259c0,0 -189,-202 -371,-393 151,-15 312,-25 481,-25 786,0 1377,199 1759,590 290,297 459,713 503,1239 -470,-334 -1038,-549 -2733,-571z"/>
 </g>
</svg>
